HIERARCHY
ROOT Hips
{
	OFFSET 0.000000 0.000000 0.000000
	CHANNELS 6 Xposition Yposition Zposition Xrotation Yrotation Zrotation
	JOINT Spine
	{
		OFFSET 0.000000 0.053497 0.080245
		CHANNELS 3 Xrotation Yrotation Zrotation
		JOINT Spine1
		{
			OFFSET 0.000000 0.018579 0.105368
			CHANNELS 3 Xrotation Yrotation Zrotation
			JOINT Spine2
			{
				OFFSET 0.000000 0.009325 0.106586
				CHANNELS 3 Xrotation Yrotation Zrotation
				JOINT Spine3
				{
					OFFSET 0.000000 0.000000 0.106993
					CHANNELS 3 Xrotation Yrotation Zrotation
					JOINT Neck
					{
						OFFSET 0.000000 -0.040122 0.280858
						CHANNELS 3 Xrotation Yrotation Zrotation
						JOINT Head
						{
							OFFSET 0.000000 -0.025546 0.144881
							CHANNELS 3 Xrotation Yrotation Zrotation
							End Site
							{
								OFFSET 0.000000 0.000000 0.000000
							}
						}
					}
					JOINT RightShoulder
					{
						OFFSET -0.032541 -0.054234 0.175720
						CHANNELS 3 Xrotation Yrotation Zrotation
						JOINT RightArm
						{
							OFFSET -0.161619 0.000000 0.000000
							CHANNELS 3 Xrotation Yrotation Zrotation
							JOINT RightForeArm
							{
								OFFSET -0.257104 0.000000 0.000000
								CHANNELS 3 Xrotation Yrotation Zrotation
								JOINT RightHand
								{
									OFFSET -0.273485 0.000000 0.000000
									CHANNELS 3 Xrotation Yrotation Zrotation
									JOINT RightHandEnd
									{
										OFFSET -0.070844 0.000000 0.000000
										CHANNELS 3 Xrotation Yrotation Zrotation
										End Site
										{
											OFFSET 0.000000 0.000000 0.000000
										}
									}
									JOINT RightHandThumb1
									{
										OFFSET -0.028338 -0.047230 -0.018892
										CHANNELS 3 Xrotation Yrotation Zrotation
										End Site
										{
											OFFSET 0.000000 0.000000 0.000000
										}
									}
								}
							}
						}
					}
					JOINT LeftShoulder
					{
						OFFSET 0.032541 -0.054234 0.175720
						CHANNELS 3 Xrotation Yrotation Zrotation
						JOINT LeftArm
						{
							OFFSET 0.161619 0.000000 0.000000
							CHANNELS 3 Xrotation Yrotation Zrotation
							JOINT LeftForeArm
							{
								OFFSET 0.257104 0.000000 0.000000
								CHANNELS 3 Xrotation Yrotation Zrotation
								JOINT LeftHand
								{
									OFFSET 0.273485 0.000000 0.000000
									CHANNELS 3 Xrotation Yrotation Zrotation
									JOINT LeftHandEnd
									{
										OFFSET 0.070844 0.000000 0.000000
										CHANNELS 3 Xrotation Yrotation Zrotation
										End Site
										{
											OFFSET 0.000000 0.000000 0.000000
										}
									}
									JOINT LeftHandThumb1
									{
										OFFSET 0.028338 -0.047230 -0.018892
										CHANNELS 3 Xrotation Yrotation Zrotation
										End Site
										{
											OFFSET 0.000000 0.000000 0.000000
										}
									}
								}
							}
						}
					}
				}
			}
		}
	}
	JOINT RightUpLeg
	{
		OFFSET -0.096537 0.000000 -0.028202
		CHANNELS 3 Xrotation Yrotation Zrotation
		JOINT RightLeg
		{
			OFFSET 0.000000 0.000000 -0.431842
			CHANNELS 3 Xrotation Yrotation Zrotation
			JOINT RightFoot
			{
				OFFSET 0.000000 0.000000 -0.456398
				CHANNELS 3 Xrotation Yrotation Zrotation
				JOINT RightToeBase
				{
					OFFSET 0.000000 -0.128905 -0.046918
					CHANNELS 3 Xrotation Yrotation Zrotation
					End Site
					{
						OFFSET 0.000000 0.000000 0.000000
					}
				}
			}
		}
	}
	JOINT LeftUpLeg
	{
		OFFSET 0.096537 0.000000 -0.028202
		CHANNELS 3 Xrotation Yrotation Zrotation
		JOINT LeftLeg
		{
			OFFSET 0.000000 0.000000 -0.431842
			CHANNELS 3 Xrotation Yrotation Zrotation
			JOINT LeftFoot
			{
				OFFSET 0.000000 0.000000 -0.456398
				CHANNELS 3 Xrotation Yrotation Zrotation
				JOINT LeftToeBase
				{
					OFFSET 0.000000 -0.128905 -0.046918
					CHANNELS 3 Xrotation Yrotation Zrotation
					End Site
					{
						OFFSET 0.000000 0.000000 0.000000
					}
				}
			}
		}
	}
}
MOTION
Frames: 8
Frame Time: 0.033333
0.230386 0.590954 0.866638 11.174500 -0.802900 -2.571900 19.508900 -1.023000 1.901400 9.834000 -0.028000 0.052300 9.390500 2.397200 -4.667700 1.566700 0.255500 -1.602600 -9.382200 -9.611700 -2.565200 -6.201500 3.903100 7.406700 1.577600 -9.645500 20.336800 22.469900 -47.721000 38.376200 0.000000 0.000000 20.287900 -41.276500 -12.207600 -6.395100 0.000000 0.000000 0.000000 0.000000 0.000000 0.000000 1.105700 5.901700 -23.421000 -6.327500 51.054400 -22.217500 0.000000 0.000000 -9.868800 -37.356600 15.545600 18.428200 0.000000 0.000000 0.000000 0.000000 0.000000 0.000000 -45.511900 -2.849800 -3.531500 55.876700 0.000000 0.000000 -20.871700 0.883700 -18.884700 -2.036000 0.000000 0.000000 -47.888400 4.712500 -2.936700 51.773700 0.000000 0.000000 -21.209800 20.571100 10.299500 5.468600 0.000000 0.000000 
0.230642 0.593413 0.861126 11.397000 -0.985600 -2.807900 19.969100 -0.863000 1.896600 10.108500 0.054700 0.059900 9.526700 2.447100 -4.674400 1.546400 0.291000 -1.623800 -9.981800 -9.535000 -2.615400 -6.126600 4.082300 7.468800 1.209700 -9.785500 20.597900 21.954300 -47.684900 38.436400 0.000000 0.000000 20.260500 -41.495700 -11.744300 -6.529200 0.000000 0.000000 0.000000 0.000000 0.000000 0.000000 0.833600 5.707800 -23.640900 -6.935300 50.776500 -22.251400 0.000000 0.000000 -9.711000 -37.661400 15.537000 18.602100 0.000000 0.000000 0.000000 0.000000 0.000000 0.000000 -46.764000 -2.845200 -3.341700 57.354100 0.000000 0.000000 -21.256700 0.877900 -18.866000 -2.178200 0.000000 0.000000 -49.064300 4.695900 -2.544600 53.136400 0.000000 0.000000 -21.696700 20.603000 10.346200 5.500600 0.000000 0.000000 
0.230660 0.595559 0.856143 11.600400 -1.095800 -2.898800 20.333100 -0.764300 1.922900 10.344800 0.097300 0.077600 9.632500 2.291300 -4.450300 1.532300 0.267700 -1.517100 -10.402700 -9.056200 -2.580800 -6.085600 4.173700 7.255200 1.307400 -9.708700 20.682700 20.794500 -47.629000 38.289200 0.000000 0.000000 19.942600 -41.683600 -11.366300 -6.628100 0.000000 0.000000 0.000000 0.000000 0.000000 0.000000 0.467700 5.678800 -24.245700 -7.004000 50.523500 -22.651400 0.000000 0.000000 -9.376200 -38.041800 15.566100 18.723000 0.000000 0.000000 0.000000 0.000000 0.000000 0.000000 -47.853600 -2.806800 -3.327800 58.639100 0.000000 0.000000 -21.611600 0.971000 -18.842600 -2.221900 0.000000 0.000000 -50.131700 4.740500 -2.369700 54.372300 0.000000 0.000000 -22.129200 20.606800 10.422600 5.654400 0.000000 0.000000 
0.230513 0.597248 0.851733 11.769900 -1.129900 -2.938500 20.609300 -0.731100 2.000800 10.559400 0.097500 0.101500 9.737300 2.106500 -4.160400 1.522800 0.219600 -1.363500 -10.761600 -8.622600 -2.555500 -6.053800 4.204200 7.040200 1.570300 -9.536200 20.646900 19.520300 -47.548300 38.031000 0.000000 0.000000 19.676200 -41.852800 -11.113600 -6.688000 0.000000 0.000000 0.000000 0.000000 0.000000 0.000000 0.096800 5.754300 -24.965000 -6.796300 50.295300 -23.170500 0.000000 0.000000 -9.007300 -38.367700 15.571800 18.755400 0.000000 0.000000 0.000000 0.000000 0.000000 0.000000 -48.763400 -2.763500 -3.448600 59.740100 0.000000 0.000000 -21.951000 1.024100 -18.799800 -2.235500 0.000000 0.000000 -51.062300 4.835100 -2.419300 55.495800 0.000000 0.000000 -22.563900 20.540100 10.598000 5.878800 0.000000 0.000000 
0.230312 0.598554 0.847809 11.897800 -1.125200 -2.942500 20.862000 -0.751400 2.118700 10.726800 0.087200 0.126700 9.828400 1.999100 -4.001200 1.511500 0.191400 -1.273100 -11.116800 -8.508300 -2.586600 -6.016200 4.251700 6.995200 1.611500 -9.453900 20.626400 18.764600 -47.469400 37.824500 0.000000 0.000000 19.577800 -41.938900 -10.922900 -6.753200 0.000000 0.000000 0.000000 0.000000 0.000000 0.000000 -0.126900 5.781600 -25.446100 -6.664400 50.140000 -23.600700 0.000000 0.000000 -8.763600 -38.566400 15.513600 18.738500 0.000000 0.000000 0.000000 0.000000 0.000000 0.000000 -49.524800 -2.707600 -3.619300 60.710100 0.000000 0.000000 -22.270700 1.003600 -18.730700 -2.283100 0.000000 0.000000 -51.852200 4.972900 -2.581000 56.499100 0.000000 0.000000 -22.975600 20.414700 10.835700 6.034100 0.000000 0.000000 
0.230053 0.599664 0.844410 11.999100 -1.127100 -2.894400 21.061900 -0.776500 2.208500 10.867100 0.087800 0.139900 9.881600 1.887200 -3.935400 1.501100 0.176800 -1.227600 -11.409800 -8.425800 -2.551700 -5.976200 4.273800 6.962400 1.443700 -9.365600 20.672100 18.531500 -47.474700 37.771100 0.000000 0.000000 19.465800 -42.008900 -10.779100 -6.789800 0.000000 0.000000 0.000000 0.000000 0.000000 0.000000 -0.199200 5.827700 -25.762200 -6.843100 50.007800 -23.647200 0.000000 0.000000 -8.716000 -38.636300 15.483500 18.743700 0.000000 0.000000 0.000000 0.000000 0.000000 0.000000 -50.167000 -2.650600 -3.746700 61.544100 0.000000 0.000000 -22.552300 1.040600 -18.698700 -2.285500 0.000000 0.000000 -52.510300 5.097100 -2.677600 57.331000 0.000000 0.000000 -23.289700 20.309900 10.996700 6.090500 0.000000 0.000000 
0.229687 0.600692 0.841781 12.115900 -1.171200 -2.846200 21.156500 -0.751100 2.225000 10.953200 0.105900 0.139700 9.942700 1.726600 -3.828200 1.499100 0.165000 -1.180700 -11.597800 -8.171300 -2.390000 -5.931700 4.235100 6.838900 1.357900 -9.168400 20.717900 18.399500 -47.578200 37.819700 0.000000 0.000000 19.314400 -42.216600 -10.728900 -6.715100 0.000000 0.000000 0.000000 0.000000 0.000000 0.000000 -0.209100 5.958900 -26.030800 -7.162400 49.825300 -23.459000 0.000000 0.000000 -8.718400 -38.613200 15.555100 18.712900 0.000000 0.000000 0.000000 0.000000 0.000000 0.000000 -50.717800 -2.642200 -3.745200 62.182500 0.000000 0.000000 -22.758200 1.181300 -18.779000 -2.185000 0.000000 0.000000 -53.061900 5.132000 -2.597200 57.938600 0.000000 0.000000 -23.452000 20.282000 10.998800 6.113100 0.000000 0.000000 
0.229316 0.601602 0.840090 12.220300 -1.273200 -2.831000 21.184600 -0.693400 2.208700 11.004600 0.133000 0.134500 10.005000 1.615300 -3.711800 1.502100 0.156900 -1.141600 -11.658000 -7.900400 -2.186900 -5.912800 4.190400 6.738100 1.446100 -8.940500 20.667200 18.161000 -47.765000 37.834300 0.000000 0.000000 19.314300 -42.401500 -10.755300 -6.535300 0.000000 0.000000 0.000000 0.000000 0.000000 0.000000 -0.229000 6.085800 -26.193000 -7.391600 49.651300 -23.304000 0.000000 0.000000 -8.653000 -38.496300 15.666300 18.573400 0.000000 0.000000 0.000000 0.000000 0.000000 0.000000 -51.134400 -2.670300 -3.599500 62.599600 0.000000 0.000000 -22.876500 1.296700 -18.954900 -2.079400 0.000000 0.000000 -53.459500 5.110800 -2.386300 58.299400 0.000000 0.000000 -23.480800 20.313700 10.899000 6.127400 0.000000 0.000000 
